<svg width="247" height="247" viewBox="0 0 247 247" fill="none" xmlns="http://www.w3.org/2000/svg">
<path d="M236.708 123.5L211.597 94.8892L215.096 57.0159L177.943 48.5767L158.492 15.8492L123.5 30.875L88.5083 15.8492L69.057 48.5767L31.9041 56.9129L35.4033 94.7863L10.2916 123.5L35.4033 152.111L31.9041 190.087L69.057 198.526L88.5083 231.254L123.5 216.125L158.492 231.151L177.943 198.423L215.096 189.984L211.597 152.111L236.708 123.5Z" fill="#47A374"/>
<path d="M99.5 84.8333H146.5V108.333L130.833 124L146.5 139.667V163.167H99.5V139.667L115.167 124L99.5 108.333V84.8333ZM138.667 141.625L123 125.958L107.333 141.625V155.333H138.667V141.625ZM123 122.042L138.667 106.375V92.6666H107.333V106.375L123 122.042ZM115.167 100.5H130.833V103.437L123 111.271L115.167 103.437V100.5Z" fill="white"/>
</svg>
